<?xml version="1.0" encoding="iso-8859-1"?>
<!-- Uploaded to: SVG Repo, www.svgrepo.com, Generator: SVG Repo Mixer Tools -->
<svg height="800px" width="800px" version="1.1" id="Layer_1" xmlns="http://www.w3.org/2000/svg" xmlns:xlink="http://www.w3.org/1999/xlink" 
	 viewBox="0 0 512.001 512.001" xml:space="preserve">
<g>
	<path style="fill:#91DC5A;" d="M228.918,44.064c-0.402,1.129-3.879,11.374-2.533,23.249c1.209,10.653,7.368,29.251,35.043,34.115
		c3.875,0.68,7.705-1.41,9.229-5.037c0.449-1.07,4.351-10.789,3.021-22.521c0-0.001,0-0.002,0-0.002
		c-0.885-7.799-3.854-14.649-8.824-20.359c-5.947-6.832-14.639-11.801-25.834-14.769C234.78,37.615,230.387,39.931,228.918,44.064z"
		/>
	<path style="fill:#91DC5A;" d="M190.475,116.389c-0.005,1.198,0.099,12.017,5.297,22.779c4.663,9.655,16.626,25.17,44.352,20.609
		c3.882-0.639,6.806-3.878,7.044-7.805c0.07-1.158,0.538-11.621-4.596-22.253c0-0.001-0.001-0.002-0.001-0.002
		c-3.414-7.068-8.481-12.551-15.059-16.297c-7.872-4.482-17.718-6.298-29.264-5.396
		C193.874,108.365,190.493,112.003,190.475,116.389z"/>
	<path style="fill:#91DC5A;" d="M323.234,178.039c-0.9,0.79-9.133,7.811-20.663,10.953c-10.345,2.818-29.902,3.974-44.657-19.939
		c-2.065-3.348-1.54-7.681,1.266-10.437c0.827-0.813,8.415-8.032,19.806-11.136c0.001,0,0.002,0,0.002,0
		c7.574-2.063,15.037-1.838,22.18,0.667c8.547,2.998,16.379,9.236,23.277,18.539C327.057,170.208,326.531,175.146,323.234,178.039z"
		/>
	<path style="fill:#91DC5A;" d="M345.514,111.65c-0.67-0.994-6.845-9.877-17.199-15.847c-9.289-5.356-27.909-11.447-48.259,7.928
		c-2.849,2.713-3.442,7.036-1.43,10.416c0.593,0.997,6.096,9.908,16.323,15.806c0.001,0,0.001,0.001,0.002,0.001
		c6.8,3.921,14.074,5.601,21.62,4.995c9.029-0.726,18.189-4.768,27.226-12.01C347.221,120.196,347.968,115.287,345.514,111.65z"/>
</g>
<g>
	<path style="fill:#6DC82A;" d="M248.693,67.313c-1.348-11.875,2.131-22.12,2.533-23.249c0.082-0.23,0.175-0.452,0.275-0.67
		c-3.731-1.88-7.891-3.438-12.481-4.655c-4.239-1.124-8.633,1.191-10.101,5.325c-0.402,1.129-3.879,11.374-2.533,23.249
		c1.209,10.653,7.368,29.251,35.043,34.115c3.53,0.62,7.015-1.064,8.761-4.108C253.904,89.787,249.672,75.944,248.693,67.313z"/>
	<path style="fill:#6DC82A;" d="M218.078,139.167c-5.197-10.762-5.303-21.581-5.297-22.779c0.013-3.004,1.603-5.656,4.008-7.139
		c-5.557-1.338-11.754-1.756-18.543-1.226c-4.373,0.341-7.754,3.979-7.772,8.365c-0.005,1.198,0.099,12.017,5.297,22.779
		c4.663,9.655,16.626,25.17,44.352,20.609c0.63-0.103,1.231-0.282,1.803-0.515C228.333,155.746,221.376,145.995,218.078,139.167z"/>
	<path style="fill:#6DC82A;" d="M280.22,169.052c-2.065-3.348-1.54-7.681,1.266-10.437c0.799-0.785,7.909-7.529,18.648-10.788
		c-6.83-2.177-13.936-2.312-21.146-0.348c0,0-0.002,0-0.002,0.001c-11.392,3.104-18.979,10.323-19.806,11.136
		c-2.807,2.757-3.332,7.089-1.266,10.437c14.755,23.913,34.313,22.757,44.657,19.939c0.257-0.07,0.501-0.151,0.754-0.224
		C295.552,186.266,287.329,180.574,280.22,169.052z"/>
	<path style="fill:#6DC82A;" d="M317.257,129.954c-10.228-5.898-15.73-14.81-16.323-15.806c-2.014-3.38-1.42-7.703,1.43-10.416
		c6.28-5.979,12.395-9.528,18.123-11.426c-10.146-3.308-24.773-3.479-40.43,11.426c-2.849,2.713-3.442,7.036-1.43,10.416
		c0.593,0.997,6.096,9.908,16.323,15.806c0.001,0,0.001,0.001,0.002,0.001c6.8,3.921,14.073,5.601,21.62,4.995
		c2.766-0.222,5.545-0.759,8.328-1.601c-2.604-0.832-5.155-1.959-7.642-3.393C317.259,129.954,317.258,129.954,317.257,129.954z"/>
</g>
<path style="fill:#91DC5A;" d="M350.281,7.894c-1.193-0.107-11.982-0.928-23.148,3.332c-10.018,3.822-26.498,14.415-24.322,42.429
	c0.305,3.922,3.283,7.112,7.176,7.685c1.148,0.169,11.533,1.529,22.564-2.679c0.001,0,0.002,0,0.002-0.001
	c7.334-2.797,13.23-7.377,17.523-13.612c5.138-7.461,7.788-17.115,7.876-28.696C357.986,11.966,354.651,8.287,350.281,7.894z"/>
<path style="fill:#6DC82A;" d="M325.119,53.658c-2.176-28.014,14.305-38.608,24.322-42.429c1.754-0.669,3.494-1.2,5.193-1.642
	c-1.224-0.934-2.715-1.543-4.352-1.69c-1.193-0.107-11.982-0.928-23.148,3.332c-10.018,3.822-26.498,14.415-24.322,42.429
	c0.305,3.922,3.283,7.112,7.176,7.685c1.013,0.149,9.227,1.22,18.726-1.424C326.689,58.511,325.319,56.246,325.119,53.658z"/>
<path style="fill:#FF9478;" d="M138.262,244.925l22.837,244.068c0.795,8.725,8.11,15.405,16.871,15.405h156.06
	c8.76,0,16.076-6.68,16.871-15.405l22.837-244.068L138.262,244.925L138.262,244.925z"/>
<g>
	<path style="fill:#FF6243;" d="M373.739,244.925H138.262l0,0l22.837,244.068c0.795,8.725,8.11,15.405,16.871,15.405h56.197
		c-8.76,0-16.076-6.68-16.871-15.405l-17.635-188.474h168.875L373.739,244.925z"/>
	<path style="fill:#FF6243;" d="M331.517,377.358c-0.237,0-0.477-0.011-0.718-0.033c-4.181-0.391-7.254-4.098-6.863-8.28
		l4.173-44.603c0.392-4.181,4.099-7.258,8.281-6.862c4.181,0.391,7.254,4.098,6.863,8.28l-4.173,44.603
		C338.71,374.402,335.397,377.358,331.517,377.358z"/>
	<path style="fill:#FF6243;" d="M326.581,430.113c-0.237,0-0.477-0.011-0.717-0.033c-4.181-0.391-7.255-4.098-6.864-8.279
		l1.839-19.67c0.393-4.181,4.111-7.252,8.28-6.863c4.181,0.391,7.255,4.098,6.864,8.279l-1.839,19.67
		C333.775,427.157,330.461,430.113,326.581,430.113z"/>
</g>
<path style="fill:#FFEB99;" d="M382.229,280.24H129.773c-10.038,0-18.251-8.213-18.251-18.251v-42.301
	c0-10.038,8.213-18.251,18.251-18.251h252.456c10.038,0,18.251,8.213,18.251,18.251v42.301
	C400.479,272.027,392.267,280.24,382.229,280.24z"/>
<g>
	<path style="fill:#FFDA44;" d="M158.138,261.989v-42.301c0-10.038,8.213-18.251,18.251-18.251h-46.616
		c-10.038,0-18.251,8.213-18.251,18.251v42.301c0,10.038,8.213,18.251,18.251,18.251h46.616
		C166.35,280.24,158.138,272.027,158.138,261.989z"/>
	<path style="fill:#FFDA44;" d="M369.899,238.773h-92.271c-4.201,0-7.605-3.405-7.605-7.605s3.404-7.605,7.605-7.605h92.271
		c4.201,0,7.605,3.405,7.605,7.605S374.099,238.773,369.899,238.773z"/>
</g>
<path d="M382.229,193.832h-70.463c9.017-3.789,15.13-8.889,16.485-10.077c6.225-5.461,7.236-14.949,2.304-21.6
	c-7.08-9.547-15.161-16.283-24.053-20.079c2.331,0.383,19.602,3.584,42.052-13.202c6.631-4.958,7.897-14.611,3.266-21.478
	c-1.258-1.865-27.649-38.6-59.343-21.075c4.775-7.013,9.443-13.066,13.654-18.111c0.882,0.292,16.621,3.263,29.131-2.444
	c3.821-1.743,5.892-5.891,4.395-9.815c-1.498-3.925-5.893-5.89-9.816-4.395c-9.393,3.582-18.366,2.315-18.747,2.26
	c-0.382-0.057-0.67-0.365-0.7-0.75c-1.703-21.927,9.637-30.992,19.451-34.735c9.742-3.717,19.346-2.9,19.755-2.863
	c0.424,0.039,0.753,0.402,0.749,0.825c-0.064,8.367-1.612,15.507-4.6,21.224c-1.946,3.722-0.506,8.316,3.216,10.262
	c3.721,1.945,8.316,0.506,10.262-3.216c4.118-7.876,6.247-17.348,6.331-28.153c0.064-8.28-6.347-15.347-14.592-16.09
	c-2.241-0.202-14.31-1.632-26.543,3.801c-35.977,15.98-28.971,51.967-28.749,52.847c-4.362,5.144-9.216,11.322-14.223,18.523
	c-0.051-0.793,1.417-40.767-44.595-44.639c-6.743-0.568-13.094,4.201-15.102,10.663c-18.648,60.042,39.443,67.557,39.99,67.596
	c-3.456,7.128-6.812,14.928-9.876,23.355c-0.659-1.962-4.659-16.21-20.595-25.654c-9.099-5.392-20.558-7.387-33.617-6.37
	c-8.256,0.643-14.751,7.634-14.786,15.916c-0.009,2.249,0.389,14.007,6.054,26.117c14.69,31.406,52.926,24.704,53.172,24.652
	c-1.724,8.483-3.055,17.392-3.881,26.706H129.773c-14.257,0-25.855,11.598-25.855,25.855v42.301
	c0,14.257,11.598,25.855,25.855,25.855h4.868l6.109,65.29c0.369,3.941,3.683,6.897,7.563,6.897c0.236,0,0.477-0.011,0.718-0.033
	c4.181-0.391,7.254-4.098,6.863-8.28l-5.977-63.874h212.168l-18.756,200.458c-0.442,4.84-4.439,8.491-9.298,8.491H177.97
	c-4.86,0-8.857-3.65-9.299-8.509l-6.509-69.569c-0.392-4.181-4.096-7.255-8.28-6.863c-4.182,0.391-7.255,4.098-6.864,8.28
	l6.508,69.55c1.158,12.725,11.666,22.32,24.443,22.32h156.062c12.776,0,23.284-9.595,24.442-22.3l18.888-201.857h4.868
	c14.257,0,25.855-11.598,25.855-25.855v-42.301C408.084,205.431,396.484,193.832,382.229,193.832z M239.577,151.51
	c-0.023,0.386-0.306,0.7-0.688,0.762c-2.9,0.478-5.701,0.719-8.324,0.719c-0.001,0-0.002,0-0.003,0
	c-16.256-0.001-24.168-9.316-27.943-17.131c-4.529-9.377-4.541-19.034-4.54-19.438c0.002-0.425,0.335-0.783,0.758-0.816
	c1.712-0.134,3.401-0.202,5.018-0.202c7.809,0,14.503,1.556,19.892,4.625c5.205,2.963,9.228,7.325,11.959,12.963
	c0.005,0.011,0.011,0.022,0.016,0.034C240.094,142.076,239.6,151.129,239.577,151.51z M318.336,171.215
	c0.253,0.341,0.201,0.827-0.118,1.108c-0.306,0.268-7.594,6.593-17.647,9.331c-2.912,0.793-5.834,1.195-8.686,1.195
	c-10.964,0-20.216-5.985-27.5-17.789c-0.203-0.33-0.151-0.749,0.123-1.019c0.273-0.268,6.774-6.573,16.453-9.218
	c0.009-0.002,0.018-0.004,0.025-0.007c6.058-1.65,12.002-1.48,17.665,0.506C305.736,157.807,312.36,163.155,318.336,171.215z
	 M263.289,146.064c3.026-9.443,6.483-18.128,10.108-26.009c6.595,12.255,21.102,18.28,22.812,19.014
	C287.094,137.041,271.683,138.587,263.289,146.064z M324.517,102.391c9.021,5.201,14.468,13.177,14.693,13.512
	c0.237,0.353,0.164,0.836-0.168,1.103c-7.829,6.274-15.593,9.761-23.08,10.363c-5.973,0.486-11.77-0.865-17.214-4.003
	c-8.714-5.025-13.392-12.78-13.589-13.11c-0.198-0.333-0.141-0.751,0.14-1.017c7.774-7.402,15.842-11.154,23.979-11.154
	C315.701,98.084,321.111,100.427,324.517,102.391z M233.943,66.456c-1.176-10.365,2.006-19.459,2.142-19.846
	c0.135-0.379,0.485-0.55,0.772-0.55c0.07,0,0.141,0.009,0.215,0.029c9.697,2.571,17.115,6.747,22.046,12.412
	c3.928,4.512,6.282,9.951,6.998,16.168c0.002,0.019,0.004,0.039,0.006,0.057c1.133,9.991-2.327,18.365-2.475,18.718
	c-0.147,0.35-0.485,0.506-0.754,0.506c-0.048,0-0.097-0.004-0.147-0.013C241.084,90.131,235.126,76.892,233.943,66.456z
	 M255.414,178.822c5.673,7.415,11.825,12.116,17.819,15.01h-19.748C253.972,188.695,254.621,183.689,255.414,178.822z
	 M392.875,261.989c0,5.871-4.776,10.646-10.646,10.646H129.773c-5.871,0-10.646-4.776-10.646-10.646v-42.301
	c0-5.871,4.776-10.646,10.646-10.646h252.456c5.871,0,10.646,4.776,10.646,10.646L392.875,261.989L392.875,261.989z"/>
<path d="M152.951,401.905c4.181-0.391,7.254-4.098,6.863-8.28l-1.641-17.532c-0.392-4.181-4.096-7.261-8.281-6.863
	c-4.181,0.391-7.254,4.098-6.863,8.28l1.641,17.532c0.369,3.941,3.683,6.897,7.563,6.897
	C152.47,401.94,152.711,401.928,152.951,401.905z"/>
</svg>